<svg width="730" height="574" viewBox="0 0 730 574" fill="none" xmlns="http://www.w3.org/2000/svg">
<path d="M230.79 45.5266C237.306 35.7841 248.253 29.9355 259.974 29.9355H482.478C510.543 29.9355 527.264 61.2341 511.662 84.5625L332.932 351.803C326.417 361.545 315.469 367.394 303.749 367.394H81.2441C53.1793 367.394 36.4585 336.095 52.0604 312.767L230.79 45.5266Z" fill="white"/>
<path d="M495.912 195.48H648.754C673.772 195.48 688.757 223.163 675.298 244.068L674.975 244.561L496.246 511.801C490.392 520.554 480.555 525.809 470.025 525.809H232.959C207.94 525.809 192.955 498.126 206.415 477.221L206.738 476.729L247.192 416.241C253.046 407.487 262.882 402.233 273.413 402.233H320.124C332.832 402.233 344.716 395.99 351.93 385.558L352.27 385.058L469.691 209.489C475.545 200.736 485.381 195.48 495.912 195.48Z" stroke="white" stroke-width="7.12983"/>
</svg>
