<svg width="107" height="20" viewBox="0 0 107 20" fill="none" xmlns="http://www.w3.org/2000/svg">
<path d="M35.959 11.9844C35.959 12.2852 35.9199 12.5566 35.8418 12.7988C35.7676 13.0371 35.668 13.248 35.543 13.4316C35.418 13.6152 35.2715 13.7715 35.1035 13.9004C34.9355 14.0293 34.7617 14.1348 34.582 14.2168C34.4023 14.2988 34.2188 14.3594 34.0312 14.3984C33.8477 14.4375 33.6738 14.457 33.5098 14.457H27.6328V12.9336H33.5098C33.8027 12.9336 34.0293 12.8477 34.1895 12.6758C34.3535 12.5039 34.4355 12.2734 34.4355 11.9844C34.4355 11.8438 34.4141 11.7148 34.3711 11.5977C34.3281 11.4805 34.2656 11.3789 34.1836 11.293C34.1055 11.207 34.0078 11.1406 33.8906 11.0938C33.7773 11.0469 33.6504 11.0234 33.5098 11.0234H30.0059C29.7598 11.0234 29.4941 10.9805 29.209 10.8945C28.9238 10.8047 28.6582 10.6621 28.4121 10.4668C28.1699 10.2715 27.9668 10.0156 27.8027 9.69922C27.6426 9.38281 27.5625 8.99609 27.5625 8.53906C27.5625 8.08203 27.6426 7.69727 27.8027 7.38477C27.9668 7.06836 28.1699 6.8125 28.4121 6.61719C28.6582 6.41797 28.9238 6.27539 29.209 6.18945C29.4941 6.09961 29.7598 6.05469 30.0059 6.05469H35.1914V7.57812H30.0059C29.7168 7.57812 29.4902 7.66602 29.3262 7.8418C29.166 8.01758 29.0859 8.25 29.0859 8.53906C29.0859 8.83203 29.166 9.06445 29.3262 9.23633C29.4902 9.4043 29.7168 9.48828 30.0059 9.48828H33.5098H33.5215C33.6855 9.49219 33.8594 9.51562 34.043 9.55859C34.2266 9.59766 34.4082 9.66016 34.5879 9.74609C34.7715 9.83203 34.9453 9.94141 35.1094 10.0742C35.2734 10.2031 35.418 10.3594 35.543 10.543C35.6719 10.7266 35.7734 10.9375 35.8477 11.1758C35.9219 11.4141 35.959 11.6836 35.959 11.9844ZM45.2161 14.457H43.0188L39.9485 11.4922C39.7766 11.3359 39.6966 11.1406 39.7083 10.9062C39.7161 10.7969 39.7434 10.6953 39.7903 10.6016C39.8411 10.5039 39.9095 10.4219 39.9954 10.3555L42.7786 8.11133H45.2161L41.6302 11L45.2161 14.457ZM39.3216 14.457H37.7981V5.44531H39.3216V14.457ZM48.3384 6.82227H46.815V5.44531H48.3384V6.82227ZM48.3384 14.457H46.815V8.12305H48.3384V14.457ZM53.3065 14.457H52.6268C52.408 14.457 52.1737 14.4199 51.9237 14.3457C51.6776 14.2715 51.4471 14.1504 51.2323 13.9824C51.0174 13.8105 50.8397 13.5898 50.6991 13.3203C50.5584 13.0469 50.4881 12.7129 50.4881 12.3184V5.44531H52.0116V12.3184C52.0116 12.5059 52.0702 12.6562 52.1873 12.7695C52.3045 12.8789 52.451 12.9336 52.6268 12.9336H53.3065V14.457ZM57.7882 14.457H57.1085C56.8898 14.457 56.6554 14.4199 56.4054 14.3457C56.1593 14.2715 55.9288 14.1504 55.714 13.9824C55.4991 13.8105 55.3214 13.5898 55.1808 13.3203C55.0402 13.0469 54.9698 12.7129 54.9698 12.3184V5.44531H56.4933V12.3184C56.4933 12.5059 56.5519 12.6562 56.6691 12.7695C56.7863 12.8789 56.9327 12.9336 57.1085 12.9336H57.7882V14.457ZM68.0414 12.6113C68.0414 12.7988 68.0082 13 67.9418 13.2148C67.8793 13.4297 67.7738 13.6289 67.6254 13.8125C67.4809 13.9961 67.2914 14.1504 67.057 14.2754C66.8227 14.3965 66.5355 14.457 66.1957 14.457H60.4125C60.3031 14.457 60.2016 14.4375 60.1078 14.3984C60.0141 14.3594 59.932 14.3066 59.8617 14.2402C59.7953 14.1699 59.7426 14.0879 59.7035 13.9941C59.6645 13.9004 59.6449 13.7988 59.6449 13.6895V6.82227C59.6449 6.7168 59.6645 6.61719 59.7035 6.52344C59.7426 6.42969 59.7953 6.34766 59.8617 6.27734C59.932 6.20703 60.0141 6.15234 60.1078 6.11328C60.2016 6.07422 60.3031 6.05469 60.4125 6.05469H65.5102C65.6977 6.05469 65.8988 6.08789 66.1137 6.1543C66.3285 6.2207 66.5277 6.32812 66.7113 6.47656C66.8988 6.62109 67.0531 6.81055 67.1742 7.04492C67.2992 7.2793 67.3617 7.56641 67.3617 7.90625V8.19336C67.3617 8.46289 67.3168 8.75391 67.227 9.06641C67.1371 9.375 66.9926 9.66797 66.7934 9.94531C66.9652 10.0508 67.1254 10.1777 67.2738 10.3262C67.4262 10.4746 67.559 10.6465 67.6723 10.8418C67.7855 11.0371 67.8754 11.2578 67.9418 11.5039C68.0082 11.75 68.0414 12.0215 68.0414 12.3184V12.6113ZM66.518 12.3184C66.518 12.1191 66.4867 11.9414 66.4242 11.7852C66.3617 11.625 66.2738 11.4883 66.1605 11.375C66.0473 11.2617 65.9105 11.1758 65.7504 11.1172C65.5902 11.0547 65.4105 11.0234 65.2113 11.0234H61.7777V9.48828H64.5258C64.725 9.48828 64.9047 9.45898 65.0648 9.40039C65.225 9.33789 65.3617 9.25 65.475 9.13672C65.5883 9.02344 65.6742 8.88867 65.7328 8.73242C65.7953 8.57227 65.8266 8.39258 65.8266 8.19336V7.90625C65.8266 7.6875 65.7211 7.57812 65.5102 7.57812H61.1684V12.9336H66.1957C66.223 12.9336 66.2563 12.9316 66.2953 12.9277C66.3344 12.9238 66.3695 12.9121 66.4008 12.8926C66.432 12.873 66.4594 12.8398 66.4828 12.793C66.5063 12.7461 66.518 12.6816 66.518 12.5996V12.3184ZM75.4645 9.64648H72.0368C71.8298 9.64648 71.6735 9.69922 71.568 9.80469C71.4626 9.90625 71.4098 10.0566 71.4098 10.2559V14.457H69.8864V10.2559C69.8864 9.99414 69.9196 9.75977 69.986 9.55273C70.0524 9.3457 70.1403 9.16406 70.2497 9.00781C70.363 8.84766 70.4919 8.71289 70.6364 8.60352C70.7809 8.49023 70.9313 8.39844 71.0876 8.32812C71.2477 8.25781 71.4079 8.20703 71.568 8.17578C71.7321 8.14062 71.8845 8.12305 72.0251 8.12305H75.4645V9.64648ZM78.7392 6.82227H77.2158V5.44531H78.7392V6.82227ZM78.7392 14.457H77.2158V8.12305H78.7392V14.457ZM87.8733 12.3184C87.8733 12.5801 87.8401 12.8164 87.7737 13.0273C87.7073 13.2344 87.6194 13.418 87.51 13.5781C87.4006 13.7344 87.2737 13.8691 87.1291 13.9824C86.9846 14.0918 86.8323 14.1816 86.6721 14.252C86.5159 14.3223 86.3557 14.375 86.1916 14.4102C86.0315 14.4414 85.8791 14.457 85.7346 14.457H82.9866C82.7248 14.457 82.4905 14.4238 82.2834 14.3574C82.0764 14.291 81.8928 14.2031 81.7327 14.0938C81.5764 13.9805 81.4416 13.8516 81.3284 13.707C81.219 13.5625 81.1291 13.4121 81.0588 13.2559C80.9885 13.0957 80.9358 12.9355 80.9006 12.7754C80.8694 12.6113 80.8538 12.459 80.8538 12.3184V10.2559C80.8538 9.86523 80.9241 9.53516 81.0647 9.26562C81.2092 8.99219 81.387 8.77148 81.5979 8.60352C81.8127 8.43164 82.0452 8.30859 82.2952 8.23438C82.5452 8.16016 82.7756 8.12305 82.9866 8.12305H85.7346V9.64648H82.9983C82.7952 9.64648 82.6409 9.69922 82.5354 9.80469C82.4299 9.90625 82.3772 10.0566 82.3772 10.2559V12.3066C82.3772 12.5137 82.428 12.6699 82.5295 12.7754C82.635 12.8809 82.7873 12.9336 82.9866 12.9336H85.7346C85.9416 12.9336 86.0959 12.8809 86.1975 12.7754C86.2991 12.6699 86.3498 12.5176 86.3498 12.3184V5.44531H87.8733V12.3184ZM96.937 15.0664C96.937 15.3281 96.9038 15.5625 96.8374 15.7695C96.771 15.9805 96.6831 16.1641 96.5737 16.3203C96.4644 16.4805 96.3374 16.6152 96.1929 16.7246C96.0484 16.8379 95.896 16.9297 95.7359 17C95.5796 17.0703 95.4195 17.1211 95.2554 17.1523C95.0952 17.1875 94.9429 17.2051 94.7984 17.2051H92.0503V15.6816H94.7984C95.0054 15.6816 95.1597 15.6289 95.2612 15.5234C95.3628 15.418 95.4136 15.2656 95.4136 15.0664V10.2559C95.4136 10.0566 95.3628 9.90625 95.2612 9.80469C95.1597 9.69922 95.0054 9.64648 94.7984 9.64648H92.0503C91.8628 9.64648 91.7144 9.70508 91.605 9.82227C91.4956 9.93555 91.4409 10.0801 91.4409 10.2559V12.3184C91.4409 12.5176 91.4937 12.6699 91.5991 12.7754C91.7046 12.8809 91.8589 12.9336 92.062 12.9336H94.7984V14.457H92.0503C91.9058 14.457 91.7534 14.4414 91.5933 14.4102C91.4331 14.375 91.273 14.3223 91.1128 14.252C90.9566 14.1816 90.8062 14.0918 90.6616 13.9824C90.5171 13.8691 90.3902 13.7344 90.2808 13.5781C90.1714 13.418 90.0835 13.2344 90.0171 13.0273C89.9507 12.8164 89.9175 12.5801 89.9175 12.3184V10.2559C89.9175 10.1113 89.9331 9.95898 89.9644 9.79883C89.9995 9.63867 90.0523 9.48047 90.1226 9.32422C90.1929 9.16406 90.2827 9.01172 90.3921 8.86719C90.5054 8.72266 90.6402 8.5957 90.7964 8.48633C90.9566 8.37695 91.1402 8.28906 91.3472 8.22266C91.5542 8.15625 91.7886 8.12305 92.0503 8.12305H94.7984C94.9429 8.12305 95.0952 8.14062 95.2554 8.17578C95.4195 8.20703 95.5796 8.25781 95.7359 8.32812C95.896 8.39844 96.0484 8.49023 96.1929 8.60352C96.3374 8.71289 96.4644 8.84766 96.5737 9.00781C96.6831 9.16406 96.771 9.3457 96.8374 9.55273C96.9038 9.75977 96.937 9.99414 96.937 10.2559V15.0664ZM105.866 10.2207C105.866 10.4316 105.829 10.6602 105.755 10.9062C105.68 11.1484 105.559 11.375 105.391 11.5859C105.227 11.793 105.011 11.9668 104.741 12.1074C104.475 12.248 104.151 12.3184 103.768 12.3184H101.02V10.8711H103.768C103.975 10.8711 104.136 10.8086 104.249 10.6836C104.362 10.5547 104.419 10.3965 104.419 10.209C104.419 10.0098 104.354 9.85352 104.225 9.74023C104.1 9.62695 103.948 9.57031 103.768 9.57031H101.02C100.813 9.57031 100.653 9.63477 100.54 9.76367C100.427 9.88867 100.37 10.0449 100.37 10.2324V12.3594C100.37 12.5625 100.432 12.7207 100.557 12.834C100.686 12.9473 100.845 13.0039 101.032 13.0039H103.768V14.457H101.02C100.809 14.457 100.581 14.4199 100.335 14.3457C100.093 14.2715 99.866 14.1523 99.6551 13.9883C99.448 13.8203 99.2742 13.6035 99.1336 13.3379C98.993 13.0684 98.9227 12.7422 98.9227 12.3594V10.2207C98.9227 10.0098 98.9598 9.7832 99.034 9.54102C99.1082 9.29492 99.2273 9.06836 99.3914 8.86133C99.5594 8.65039 99.7762 8.47461 100.042 8.33398C100.311 8.19336 100.637 8.12305 101.02 8.12305H103.768C103.979 8.12305 104.206 8.16016 104.448 8.23438C104.694 8.30859 104.921 8.42969 105.128 8.59766C105.339 8.76172 105.514 8.97852 105.655 9.24805C105.796 9.51367 105.866 9.83789 105.866 10.2207Z" fill="black"/>
<path d="M5.58549 1.6876C3.27224 2.61444 1.38379 3.38295 1.38379 3.39454C1.38379 3.42543 9.80263 6.79297 9.87987 6.79297C9.91076 6.79297 11.0809 6.33341 12.4828 5.7773C14.8501 4.82729 15.0161 4.75391 14.9119 4.71529C14.8539 4.69212 13.6838 4.24415 12.3167 3.7228C10.9496 3.20145 9.81808 2.76892 9.80649 2.75733C9.77946 2.72644 9.96483 2.19736 10.0073 2.19736C10.0343 2.19736 15.831 4.39476 15.8542 4.41793C15.8619 4.42179 15.6958 4.4913 15.4873 4.5724C15.2826 4.6535 15.1011 4.73074 15.0818 4.74619C15.0663 4.75777 15.2787 4.85432 15.5568 4.95859L16.0588 5.14782V5.44132V5.73096H16.3678H16.6767V5.22506V4.71529L16.3407 4.59557C16.1515 4.52992 15.9777 4.46041 15.9507 4.4411C15.9159 4.42179 16.3214 4.24028 17.1363 3.91203C17.8198 3.6417 18.3759 3.40612 18.3759 3.39454C18.3759 3.35592 9.94552 -0.00389321 9.86056 -3.13581e-05C9.81808 -3.13581e-05 7.89487 0.760754 5.58549 1.6876Z" fill="black"/>
<path d="M4.93652 6.9891V8.4566L5.13348 8.66514C5.47332 9.02429 6.06418 9.39503 6.70139 9.64605C8.69797 10.4377 11.7527 10.3489 13.5369 9.44524C13.8806 9.26759 14.4135 8.88913 14.6221 8.67286L14.8229 8.4566V6.9891C14.8229 6.17811 14.8151 5.51773 14.8036 5.51773C14.792 5.51773 13.6798 5.95798 12.332 6.49864L9.8797 7.47955L7.42742 6.49864C6.07963 5.95798 4.96742 5.51773 4.95583 5.51773C4.94425 5.51773 4.93652 6.17811 4.93652 6.9891Z" fill="black"/>
<path d="M16.1045 6.3715C15.9191 6.42557 15.6836 6.68045 15.6295 6.8774C15.5407 7.22111 15.6758 7.58026 15.9693 7.76177C16.1895 7.90079 16.5641 7.89307 16.7803 7.75018C17.0198 7.59185 17.1202 7.40261 17.1202 7.10139C17.1202 6.80403 17.0198 6.61093 16.7919 6.46032C16.6258 6.34833 16.3092 6.30971 16.1045 6.3715Z" fill="black"/>
<path d="M15.9269 8.52313C15.9153 8.58106 15.8072 9.21054 15.6914 9.92112C15.5755 10.6317 15.4674 11.2612 15.4558 11.3191L15.4326 11.4272H16.3672H17.3018L17.2786 11.3191C17.267 11.2612 17.1589 10.6317 17.043 9.92112C16.9272 9.21054 16.819 8.58106 16.8074 8.52313C16.7881 8.43045 16.7765 8.42272 16.6645 8.45748C16.595 8.47679 16.4637 8.49224 16.3672 8.49224C16.2706 8.49224 16.1393 8.47679 16.0698 8.45748C15.9578 8.42272 15.9462 8.43045 15.9269 8.52313Z" fill="black"/>
<path d="M2.94761 9.31042C2.60391 9.37221 2.15979 9.61937 1.87402 9.90129C1.02441 10.7432 1.02441 12.1025 1.87016 12.9483C2.16752 13.2495 2.61549 13.4851 3.00554 13.5507C3.18319 13.5778 5.30721 13.5894 10.1384 13.5816L17.0241 13.57L17.1476 13.4426C17.2558 13.3345 17.2751 13.292 17.2751 13.1259C17.2751 12.9599 17.2558 12.9174 17.1476 12.8093L17.0241 12.6818L10.0418 12.6625L3.06347 12.6432L2.82017 12.5119C2.5537 12.3652 2.39537 12.203 2.26406 11.9288C2.14049 11.6739 2.14435 11.1718 2.27179 10.9054C2.39151 10.6621 2.62322 10.4265 2.87038 10.3068L3.06347 10.2102L4.70089 10.1987L6.34218 10.1871L5.96758 9.99783C5.59685 9.8086 5.28017 9.61165 4.99826 9.3838L4.84765 9.26408L3.99418 9.26794C3.52689 9.27181 3.05574 9.28725 2.94761 9.31042Z" fill="black"/>
<path d="M14.7609 9.38379C14.4751 9.6155 14.1468 9.82404 13.78 10.0055L13.4131 10.1909H14.2125C15.0119 10.1909 15.0158 10.1909 15.0351 10.1021C15.0582 9.9901 15.1702 9.32972 15.1702 9.29111C15.1702 9.27566 15.1123 9.26407 15.0389 9.26407C14.954 9.26407 14.8613 9.30269 14.7609 9.38379Z" fill="black"/>
<path d="M3.14022 10.863C2.7772 11.0213 2.66135 11.5118 2.91623 11.8169C3.12091 12.0602 2.74245 12.0447 8.98706 12.0447H14.7065L14.7258 11.9559C14.7605 11.7976 14.8996 10.9364 14.8996 10.8707C14.8996 10.8128 14.4477 10.8089 9.07975 10.8089C4.32581 10.8128 3.2329 10.8205 3.14022 10.863Z" fill="black"/>
<path d="M2.05918 14.2691C1.49535 14.3888 0.8929 14.7711 0.549195 15.2229C0.074187 15.8486 -0.0995965 16.6132 0.0548777 17.3663C0.220937 18.1695 0.730702 18.8261 1.4799 19.1891C2.08235 19.4826 1.40653 19.4633 10.9492 19.4517L19.4955 19.4401L19.619 19.3126C19.7272 19.2045 19.7465 19.162 19.7465 18.996C19.7465 18.8299 19.7272 18.7874 19.619 18.6793L19.4955 18.5519L10.8719 18.5326C2.97444 18.5132 2.24069 18.5094 2.09394 18.4476C1.77726 18.3201 1.61507 18.2197 1.42197 18.0266C0.804077 17.4088 0.761597 16.424 1.32929 15.7288C1.48376 15.5358 1.73865 15.362 2.03601 15.2423L2.25227 15.1534L10.8719 15.1341L19.4955 15.1148L19.619 14.9874C19.7272 14.8792 19.7465 14.8368 19.7465 14.6707C19.7465 14.5046 19.7272 14.4622 19.619 14.354L19.4955 14.2266L10.9106 14.2189C3.46103 14.215 2.29475 14.2227 2.05918 14.2691Z" fill="black"/>
<path d="M2.25637 15.814C1.98604 15.899 1.68096 16.2118 1.59986 16.486C1.46856 16.9224 1.55738 17.2815 1.86247 17.5905C2.22162 17.9457 1.3527 17.9148 10.8915 17.9148H19.3026V16.8335V15.7522L10.876 15.7561C3.49603 15.7561 2.42243 15.7638 2.25637 15.814Z" fill="black"/>
</svg>
